<svg version="1.2" xmlns="http://www.w3.org/2000/svg" viewBox="0 0 1527 356" width="1527" height="356">
	<title>ft-wlogo-svg</title>
	<style>
		.s0 { fill: #213b72 } 
	</style>
	<g id="Layer">
		<path id="Layer" fill-rule="evenodd" class="s0" d="m0.3 0.8l200.5 1.4c62.3 2.1 99.5 55.2 100.9 103.9 0.8 50.2-34.3 107.5-98.1 111.8l-86.6 0.7v88.9c2.2 28.7 25.8 42.3 53 42.3v5.7h-169.7v-5c28.6-0.7 54.4-12.9 53.7-55.2l-0.7-244.4c-2.2-23.6-14.3-42.3-52.3-44.4zm84.5 328.2c1.4 26.5 22.2 22.3 21.5-0.7l0.7-110.3h-22.9zm31.5-136.9h75.9c45.8-3.6 71.6-43 73-81 1.5-38-22.2-78.8-73-83.9h-75.9zm-32.2 0h22.9v-164.8h-22.9z"/>
		<path id="Layer" fill-rule="evenodd" class="s0" d="m402 0.8h6.4v354.7h-6.4zm109.5 150.5v-101.7h47.3c20 0 32.2 12.9 32.2 32.9 0 9.3-5 33-32.9 33h-24.4v35.8zm41.6-53.7c15.7 0 15.7-11.5 15.7-15.8 0-10-5.7-14.3-18.6-14.3h-17.2v30.1zm99.5-50.2c13.6 0 49.4 5.7 49.4 53.8 0 48-35.8 53.7-49.4 53.7-13.6 0-49.4-5.7-49.4-53.7 0-48.1 35.8-53.8 49.4-53.8zm0 88.9c11.5 0 28-7.2 28-35.1 0-28-16.5-35.9-28-35.9-11.4 0-27.9 7.2-27.9 35.9-0.7 27.9 15.8 35.1 27.9 35.1zm111.7-88.9c13.6 0 49.4 5.7 49.4 53.8 0 48-35.8 53.7-49.4 53.7-13.6 0-49.4-5.7-49.4-53.7 0-48.1 35.8-53.8 49.4-53.8zm0 88.9c12.2 0 28-7.2 28-35.1 0-28-16.5-35.9-28-35.9-11.4 0-27.9 7.2-27.9 35.9 0 27.9 16.5 35.1 27.9 35.1zm129.6-86.7h20.1v101.7h-21.5l-42.2-72.4h-0.8v72.4h-20v-101.7h22.9l40.8 70.9h0.7z"/>
		<path id="a" fill-rule="evenodd" class="s0" d="m949.7 151.3h-22.9l36.5-101.8h25.1l36.5 101.8h-23.6l-6.5-20.8h-37.9zm12.9-38h26.5l-12.9-40.1h-0.7z"/>
		<path id="Layer" class="s0" d="m1021.3 49.5h22.9l16.5 74.5h0.7c2.2-10.7 3.6-20.8 14.4-74.5h22.9l15.7 74.5h0.7c2.2-9.3 3.6-18.6 17.2-74.5h21.5l-29.4 101.8h-20.7c-10.8-49.5-12.2-59.5-15.8-79.6h-0.7l-15.7 79.6h-20.1z"/>
		<path id="a" fill-rule="evenodd" class="s0" d="m1172.4 151.3h-22.9l36.5-101.8h25.1l36.5 101.8h-23.6l-6.5-20.8h-37.9zm12.9-38h26.5l-12.9-40.1h-0.7z"/>
		<path id="Layer" class="s0" d="m1282.7 133.3h51.5v18.7h-73v-102.5h21.5zm88.1 0h51.5v18.6h-73v-102.5h21.5z"/>
		<path id="a" fill-rule="evenodd" class="s0" d="m1451.7 151.3h-23l36.6-101.8h25l36.5 101.8h-23.6l-6.4-20.8h-38zm12.9-38h26.5l-12.9-40.1h-0.7z"/>
		<path id="Layer" fill-rule="evenodd" class="s0" d="m530.9 306.1h-21.5v-102.5h73.7v17.9h-52.2v22.9h45.1v18h-45.1zm65.1-102.5h21.5v102.5h-21.5zm104.6 0h20v101.7h-21.5l-42.2-72.4h-0.7v72.4h-20.1v-101.7h22.9l40.8 70.9h0.8zm106.6 33.7c-2.1-6.5-5-17.2-22.9-17.2-10.7 0-25.7 6.4-25.7 35.8 0 18.7 7.8 34.4 25.7 34.4 11.5 0 20.1-6.4 22.9-18.6h21.5c-4.3 22.2-18.6 37.3-45.1 37.3-27.2 0-47.2-18.7-47.2-53.8 0-35.8 20.7-53.7 47.2-53.7 30.8 0 43.7 20.7 44.4 35.8zm83.1-35.8c13.6 0 49.4 5.7 49.4 53.7 0 48-35.8 53.8-49.4 53.8-13.6 0-49.4-5.8-49.4-53.8 0-48 35.8-53.7 49.4-53.7zm0 88.8c12.1 0 27.9-7.1 27.9-35.8 0-28.7-16.5-35.8-27.9-35.8-11.5 0-28 7.1-28 35.8 0 28.7 16.5 35.8 28 35.8zm67.3-86.7h52.2c27.3 0 33 20.1 33 28.7 0 11.4-5.7 20.8-15.8 24.3 8.6 3.6 12.9 7.2 12.9 25.8 0 14.4 0 18.7 5 20.1v2.9h-24.3c-1.4-5.1-2.2-10.1-2.2-20.1 0-13.6-0.7-19.3-17.1-19.3h-22.2v39.4h-21.5zm45.8 45.1c11.5 0 16.5-3.6 16.5-13.6 0-5-2.2-12.9-15.1-12.9h-27.2v27.2zm58 57.4v-102.5h47.3c20 0 32.2 12.9 32.2 32.9 0 9.4-5 33-32.9 33h-24.4v36.6zm41.5-54.5c15.8 0 15.8-11.5 15.8-15.8 0-10-5.7-14.3-18.6-14.3h-17.2v30.1z"/>
	</g>
</svg>