<svg width="635" height="175" viewBox="0 0 635 175" fill="none" xmlns="http://www.w3.org/2000/svg">
<path fill-rule="evenodd" clip-rule="evenodd" d="M594.09 61.971H581.657L567.958 102.578H567.754L553.644 61.971H540.578L561.064 116.148L559.705 120.36C558.242 124.985 556.883 127.93 551.348 127.93C549.467 127.93 547.579 127.509 545.702 127.195V137.296C548.434 137.717 551.194 137.926 553.958 137.922C566.395 137.922 569.213 129.089 573.078 119.305L594.09 61.971ZM531.921 113.517V61.971H520.01V69.4401H519.799C516.767 63.3388 510.602 60.4951 503.812 60.4951C488.446 60.4951 479.353 73.1225 479.353 87.744C479.353 103.312 486.462 116.361 503.604 116.361C510.287 116.361 516.459 112.783 519.799 106.786H520.01V115.097C520.01 124.039 515.723 128.984 506.111 128.984C500.046 128.984 494.614 127.829 493.148 120.986H481.234C482.281 133.718 494.507 137.922 505.381 137.922C522.413 137.922 531.921 129.823 531.921 113.521V113.517ZM520.01 87.9564L519.999 88.5267C519.84 97.6059 515.815 106.89 505.481 106.89C495.873 106.89 491.552 98.4147 491.282 89.7678C491.273 89.4797 491.268 89.1914 491.267 88.9031C491.267 79.8537 494.925 69.9694 505.481 69.9694C515.826 69.9694 520.01 78.5939 520.01 87.9564ZM456.863 116.357H468.778V61.9747H456.863V116.364V116.357ZM456.863 52.6085H468.778V41.2482H456.863V52.6085ZM451.295 158.447C451.39 157.674 451.44 156.897 451.443 156.118C451.443 147.396 445.486 139.689 436.24 139.689C426.74 139.689 420.819 147.516 420.819 156.647C420.819 166.52 426.429 173.538 436.429 173.538C443.401 173.538 449.322 169.625 450.865 162.607H444.201C442.968 166.148 440.498 167.948 436.426 167.948C430.565 167.948 427.851 163.475 427.851 158.444H451.295V158.447ZM444.26 153.788H427.851C428.036 149.007 431.368 145.279 436.24 145.279C440.991 145.279 444.016 149.316 444.264 153.788H444.26ZM433.967 116.361H445.249V41.2482H433.338V69.019H433.127C429.469 63.022 421.945 60.4988 415.151 60.4988C403.344 60.4988 391.747 69.1233 391.747 88.7988C391.747 90.5319 391.84 92.2277 392.025 93.8676C393.602 107.669 401.814 117.833 417.035 117.833C423.826 117.833 430.616 115.202 433.752 108.996H433.963V116.361H433.967ZM433.752 89.1156C433.752 98.5824 429.261 108.362 418.602 108.362C408.257 108.362 403.655 99.1042 403.655 89.7417C403.655 79.9618 407.631 69.9694 418.809 69.9694C428.01 69.9694 433.752 77.118 433.752 89.1118V89.1156ZM401.814 139.689C391.325 139.689 386.079 147.266 386.079 156.953C386.079 166.397 391.573 173.538 401.566 173.538C409.775 173.538 414.895 168.943 416.191 160.62H409.157C408.479 165.216 405.639 167.948 401.566 167.948C395.457 167.948 393.117 162.297 393.117 156.953C393.117 147.203 398.234 145.279 401.877 145.279C405.624 145.279 408.398 147.244 409.09 150.896C409.116 151.03 409.138 151.165 409.157 151.302H416.191C415.51 143.416 409.219 139.689 401.814 139.689ZM383.931 89.1118C383.931 72.4889 374.009 60.4988 356.659 60.4988C339.308 60.4988 329.382 72.4889 329.382 89.1118C329.382 105.839 339.308 117.829 356.659 117.829C374.005 117.829 383.931 105.839 383.931 89.1118ZM372.02 89.1118C372.02 98.5787 367.318 108.362 356.655 108.362C345.999 108.362 341.297 98.5787 341.297 89.1118C341.297 79.7493 345.999 69.9694 356.659 69.9694C367.318 69.9694 372.02 79.7493 372.02 89.1118ZM320.222 71.859C321.895 71.859 323.676 72.1758 325.346 72.3846V60.8119C324.298 60.7075 323.569 60.4988 320.855 60.4988C313.535 60.4988 306.43 66.7044 305.071 72.4889H304.86V61.971H293.679V116.364H305.597V90.4834C305.597 78.4896 312.073 71.8627 320.222 71.8627V71.859ZM298.018 139.7C296.094 139.773 294.22 140.333 292.57 141.33C290.919 142.327 289.545 143.728 288.577 145.402L288.451 145.279V140.553H281.786V172.663H288.821V153.721C288.821 149.003 291.846 145.276 296.533 145.276C298.466 145.276 299.925 145.749 300.947 146.767C302.105 147.929 302.698 149.797 302.761 152.476V172.663H309.799V150.617C309.799 143.412 305.419 139.685 298.507 139.685C298.344 139.685 298.181 139.685 298.018 139.696V139.7ZM284.148 66.1565C284.148 56.794 280.076 41.2482 258.753 41.2482H235.734V116.364H247.897V90.8636H258.967C280.098 90.8636 284.145 75.3886 284.145 66.1603L284.148 66.1565ZM272.371 66.0522C272.371 75.5191 265.162 80.1295 259.308 80.1295H247.897V51.9786H259.519C266.184 51.9786 271.974 55.8921 272.348 65.0869C272.363 65.4037 272.371 65.7242 272.371 66.0559V66.0522ZM189.793 133.681C203.567 115.94 210.846 94.3261 210.842 71.177C210.824 61.2833 209.507 51.4354 206.925 41.8893L206.492 40.2941L204.851 40.2643C204.074 40.2456 203.296 40.2382 202.515 40.2382C189.016 40.2382 176.005 42.6012 163.798 47.2601C160.691 37.8388 156.314 28.891 150.791 20.6671C148.521 17.2754 146.033 13.9583 143.386 10.8089L142.338 9.54541L140.838 10.2163C127.195 16.2803 115.298 24.6849 105.435 35.214C103.732 33.3967 101.966 31.6402 100.14 29.9476L99.9182 29.7464C96.7063 26.793 93.3184 24.0398 89.7733 21.502L89.4437 21.2597C83.3531 16.9391 76.8503 13.2397 70.0314 10.2163L68.5356 9.54541L67.4767 10.8089C58.2537 21.8076 51.3929 34.0624 47.0647 47.2601C44.4842 46.2735 41.8656 45.3907 39.2153 44.6138L38.971 44.3716H38.3638C35.6979 43.6112 32.9581 42.9478 30.2071 42.3962L30.0294 42.221H29.374L29.2148 42.1949C21.5681 40.7392 13.7916 40.0896 6.01112 40.2568L4.3709 40.2941L3.94141 41.8856C-4.92243 74.7848 1.32373 108.243 21.0693 133.681C30.4597 145.807 42.5281 155.565 56.3173 162.178L56.7653 162.398H56.7727C70.0314 168.719 84.9785 172.238 100.188 172.629L100.181 172.64H100.67C102.247 172.677 103.802 172.677 105.431 172.64H105.483C107.103 172.681 108.724 172.681 110.344 172.64H110.722L110.715 172.629C142.434 171.813 171.132 157.721 189.801 133.681H189.793ZM92.4058 146.237C89.4289 140.016 87.0892 133.506 85.4228 126.808C81.7795 112.03 81.6388 97.0804 85.0118 82.3695C85.171 81.6613 85.3488 80.9383 85.5339 80.2078C88.3372 83.6563 90.8958 87.2992 93.1907 91.1096L101.066 107.647C101.918 110.002 102.673 112.369 103.321 114.691L105.424 122.265L107.534 114.691C111.026 102.08 117.083 90.3376 125.321 80.2078C127.272 87.8801 128.259 95.7688 128.257 103.689C128.257 126.133 120.171 148.503 105.428 166.964C100.316 160.578 95.9468 153.623 92.4058 146.237ZM45.7762 51.4829C43.2332 60.4532 41.9386 69.7352 41.9293 79.0635C41.9366 86.5441 42.7849 93.9998 44.4581 101.288C50.9523 129.618 69.3613 153.472 95.5862 167.996C82.4867 167.076 69.7204 163.747 58.2944 158.239L58.2574 158.224L57.7798 157.985H57.765C44.7694 151.668 33.3946 142.422 24.5237 130.964C5.95558 107.047 -0.120256 75.6756 7.75131 44.6548C14.615 44.621 21.4666 45.2387 28.2151 46.4997L28.9001 46.6339C31.6029 47.1669 34.2947 47.808 36.9161 48.5459L37.6825 48.7658H37.6899C40.4222 49.5578 43.12 50.4655 45.7762 51.4866V51.4829ZM49.8601 53.1601C62.1124 58.4713 73.1036 66.3429 82.1054 76.2533C81.6129 77.9789 81.1279 79.7083 80.7428 81.3781C77.218 96.771 77.3624 112.414 81.1723 127.874C82.9119 134.864 85.3546 141.658 88.4626 148.149C91.1284 153.74 94.3348 159.103 97.9521 164.228C72.701 150.322 54.9585 127.468 48.7271 100.289C47.1231 93.3283 46.3132 86.2057 46.3131 79.0598C46.3094 70.3719 47.5016 61.6691 49.8601 53.1564V53.1601ZM102.484 38.4939C94.1617 48.1079 87.758 59.2463 83.6234 71.3L83.5641 71.2291L83.5382 71.3149C74.3424 61.7339 63.3245 54.1146 51.1412 48.9112C55.1177 36.6527 61.3749 25.2366 69.7648 14.9311C75.7753 17.709 81.5198 21.0364 86.926 24.8713L87.2222 25.0875C90.5841 27.4989 93.8127 30.1191 96.8229 32.8771L97.0376 33.1679L97.2598 33.2797C99.0666 34.9569 100.818 36.7049 102.48 38.4939H102.484ZM105.431 41.8036C113.758 51.541 120.03 62.8813 123.866 75.1352C122.707 76.4769 121.578 77.8336 120.519 79.1977C114.049 87.5313 108.955 96.8591 105.431 106.823L105.191 106.137C101.679 96.4282 96.6707 87.3359 90.3509 79.194C89.2703 77.8133 88.1542 76.4612 87.0038 75.1389C90.835 62.8833 97.1048 51.5412 105.431 41.8036ZM159.729 48.9149C147.562 54.1083 136.557 61.712 127.369 71.2739L127.346 71.1807L127.243 71.3C123.107 59.2469 116.703 48.1086 108.382 38.4939C117.527 28.6655 128.513 20.7528 141.098 14.9311C143.249 17.5736 145.281 20.328 147.162 23.1345C152.512 31.1033 156.741 39.7791 159.729 48.9149ZM164.553 79.0598C164.546 86.2064 163.738 93.3293 162.143 100.293C155.915 127.43 138.206 150.266 113.003 164.176C125.725 146.081 132.645 124.929 132.645 103.692C132.648 96.2045 131.797 88.6981 130.123 81.3781C129.719 79.6536 129.271 77.9398 128.779 76.2384C137.776 66.3321 148.762 58.4652 161.01 53.1601C163.365 61.6691 164.557 70.3719 164.553 79.0635V79.0598ZM206.466 71.177C206.466 93.3309 199.509 114.005 186.346 130.967C169.411 152.778 143.815 166.028 115.269 168C141.498 153.479 159.914 129.622 166.412 101.285C168.082 93.9944 168.929 86.5215 168.933 79.0598C168.933 69.8054 167.645 60.5361 165.09 51.4829C176.875 46.947 189.46 44.6474 202.519 44.6474H203.119C205.34 53.4098 206.462 62.3251 206.462 71.177H206.466ZM261.522 128.325H235.734V172.666H242.613V152.98H258.745V146.644H242.613V135.03H261.518V128.321L261.522 128.325ZM267.52 135.034H274.555V128.325H267.52V135.034ZM267.52 172.666H274.555V140.557H267.52V172.666ZM315.853 164.161C315.853 164.355 315.857 164.549 315.868 164.739C316.175 170.624 321.211 173.538 326.772 173.538C330.533 173.538 335.036 172.357 337.813 169.625C338.368 172.547 340.408 173.538 343.244 173.538C344.414 173.538 346.639 173.102 347.687 172.73V167.825C347.179 167.909 346.665 167.95 346.151 167.948H345.958C344.662 167.948 344.292 167.266 344.292 165.525V149.007C344.292 142.234 337.753 139.689 331.522 139.689C324.487 139.689 317.515 142.111 317.023 150.374H324.058C324.365 146.893 327.142 145.279 331.093 145.279C333.925 145.279 337.69 145.962 337.69 149.625C337.69 153.788 333.188 153.229 328.127 154.161C322.203 154.843 315.853 156.148 315.853 164.161ZM322.884 163.852C322.884 160.125 325.602 159.006 328.623 158.507C331.707 157.948 335.102 158.011 337.261 156.584V161.861C337.261 166.334 332.448 167.948 329.363 167.948C326.894 167.948 322.884 167.016 322.884 163.848V163.852ZM359.354 140.557H352.689V172.666H359.724V153.725C359.724 149.007 362.745 145.279 367.436 145.279C371.572 145.279 373.546 147.452 373.668 152.48V172.666H380.703V150.62C380.703 143.416 376.323 139.689 369.41 139.689C369.247 139.689 369.084 139.689 368.921 139.7C367.922 139.737 366.959 139.901 366.048 140.181C363.284 141.027 360.937 142.89 359.476 145.399L359.354 145.279V140.553V140.557Z" fill="#036AA2"/>
<path fill-rule="evenodd" clip-rule="evenodd" d="M618.102 60.1597C625.53 60.1597 631.551 54.1254 631.551 46.6816C631.551 39.2379 625.53 33.2035 618.102 33.2035C610.674 33.2035 604.653 39.2379 604.653 46.6816C604.653 54.1254 610.674 60.1597 618.102 60.1597ZM618.102 63.6157C627.435 63.6157 635 56.034 635 46.6816C635 37.3292 627.435 29.7476 618.102 29.7476C608.77 29.7476 601.204 37.3292 601.204 46.6816C601.204 56.034 608.77 63.6157 618.102 63.6157Z" fill="#036AA2"/>
<path d="M617.711 45.7179C618.607 45.7179 619.259 45.5335 619.65 45.1815C620.041 44.8463 620.253 44.2765 620.253 43.472C620.253 42.6843 620.041 42.1312 619.65 41.7792C619.259 41.444 618.607 41.2764 617.711 41.2764H615.885V45.7179H617.711ZM615.885 48.785V55.3214H611.55V38.0417H618.167C620.384 38.0417 621.997 38.4272 623.024 39.1982C624.067 39.9524 624.572 41.1591 624.572 42.8184C624.572 43.9581 624.311 44.8966 623.774 45.6341C623.236 46.3548 622.437 46.9078 621.345 47.243C621.948 47.3939 622.47 47.7123 622.942 48.1984C623.415 48.6844 623.888 49.4218 624.36 50.4275L626.724 55.3214H622.111L620.058 51.0308C619.65 50.1761 619.226 49.5727 618.803 49.271C618.379 48.9526 617.809 48.785 617.108 48.785H615.885Z" fill="#036AA2"/>
</svg>
