<svg version="1.2" xmlns="http://www.w3.org/2000/svg" viewBox="0 0 1547 623" width="1547" height="623"><defs><clipPath clipPathUnits="userSpaceOnUse" id="cp1"><path d="m-619-344h14163v9083h-14163z"/></clipPath></defs><style>.a{fill:#ce171e}</style><g clip-path="url(#cp1)"><path fill-rule="evenodd" class="a" d="m118.6 462.5c63.6-19.7 125.3-44.9 178.7-85.9v20.5c-36.2 44-95.6 78.2-148.6 104.5-9.3 4.6-15.6 7-25.2 1.9-26.2-13.9-47.2-27.8-4.9-41zm57.8 38.6c39-12.9 85.2-33.9 120.9-61.4v20.5c-19.1 24-46.5 45.1-79.7 64.9-13.2 8-19.6 10.2-28.4 7.6-35.7-10.3-44.2-21.1-12.8-31.6zm1304.9-99.4v125.8h-26.7v-125.8zm-1111.4-194.6c-89.5 14.1-185.2 49.6-258.5 104.5v-20.6c54.2-65.6 163.2-115 254.4-151 11.8-4.6 15.8-6.2 24.5 4.3 7 8.5 13.4 17.5 16.2 25.3 9.4 25.8-17.4 34.5-36.6 37.5zm-136 326.5c26.8-14.4 43.5-24.4 63.5-41.9v31.9c0 26.9-35.3 30.4-62.1 22.4-10.2-3-8.6-8.6-1.4-12.4zm-195.1-190.6c89.6-14.1 185.3-49.6 258.6-104.5v20.6c-54.3 65.6-163.2 115-254.5 151-11.7 4.6-15.8 6.2-24.4-4.3-7.1-8.5-13.4-17.5-16.2-25.3-9.5-25.8 17.4-34.5 36.5-37.5zm319.4 269.6h25.9v9.3h-36.3v-47.7h36v9.3h-25.6v9.7h22.5v9.3h-22.5zm33.8-210.3v127.1h-44.3v-127.1zm-71.9-259.3c-72.8 20.1-148.3 54.8-208.7 99.3v-20.7c42.4-51.5 124.3-96.1 199.5-129.8 17.8-7.9 23.5-11.4 38.5 2.8 29.2 27.7 21.8 34.4-29.3 48.4zm-231.4 264.3c72.8-20.1 148.3-54.8 208.7-99.3v20.7c-42.3 51.5-124.3 96.1-199.5 129.7-17.7 8-23.5 11.5-38.5-2.7-29.2-27.7-21.8-34.4 29.3-48.4zm1426.2 120.3l-33.2-44.2 32.7-41.1h32.2l-32.9 41.1 33.3 44.2zm-810.7-87.5c7 15.5 7 36 0 51.5-7.2 15.9-22.4 28.2-38.8 33.6-8.4 2.8-18.1 4.2-29.3 4.2h-61.2v-127.1h61.2c11.2 0 20.9 1.4 29.3 4.2 16.2 5.4 31.7 17.9 38.8 33.6zm-48.4 3.3q-8.4-8.6-21.9-8.6h-14.7v62.3h14.7c9 0 16.3-2.9 21.9-8.6 11.5-11.7 11.5-33.4 0-45.1zm318.4-57h-44.8v-131.3h44.8v48.1h52.9v-48.1h44.9v131.3h-44.9v-48.6h-52.9zm281.9 136.8c-7.2-6.6-8.9-19.2-3.9-27.6 3.4-5.7 9.3-9 15.1-11.6q11.2-5 32.3-11.1c0.5-3.2 0.1-6.3-1.4-8.7-2.4-3.9-7.2-5.3-11.5-5.7-12-1.2-24.9 5.9-33.1 13.7l0.4-21.3c9.3-6.2 19.9-9.2 31-10.3 12.1-1.1 25.6 0.2 33.6 7.1q8.2 7.1 8.2 22.7v34c0 5.4 2.4 6 7.1 4.8 1.2-0.3 2.9-0.8 4.9-1.7v15c-5.8 2.8-12 5.3-18.4 6.4-7.5 1.3-18.2 0.2-19.4-9.2-11 9.9-33.6 14.1-44.9 3.5zm20.5-19.3c0.2 5.7 4.9 8.9 10.3 8.5 4.6-0.2 8.9-2.6 12.7-5.2v-20.9q-5.3 1.9-9.2 3.6c-3.2 1.3-6.5 2.8-9.2 5-2.9 2.2-4.7 5.3-4.6 9zm-857.8 93.7l16.6 24.3h-12.2l-10.7-16.3-10.8 16.3h-11.9l16.6-24.2-15.9-23.4h12.3l10 15.4 10-15.4h12zm346.8-195.3v127.1h-44.3v-127.1zm55.6-113.3h-46.3v-33.9h138.1v33.9h-46.2v97.4h-45.6zm-184.5 84.1q-17.6-15.7-17.6-46.7v-71.3h45.7v70.2q0 14 5.9 20.8c8.1 9.5 28.1 9.5 36.1 0q5.9-6.8 5.9-20.8v-70.2h45.8v71.3c0 20.7-5.9 36.2-17.6 46.7-24.4 21.8-79.8 21.8-104.2 0zm-171.3-25.6c-7.1-16.5-7-37.2 0.1-53.8 7.3-16.8 22.2-30.2 39.3-36.5 17.8-6.7 39.2-6.6 57 0 17 6.2 32.1 19.6 39.2 36.5 7 16.5 7.1 37.3 0 53.9-7.2 16.9-22.3 30.2-39.3 36.6-17.8 6.7-39.1 6.8-56.9 0-17-6.4-32-19.8-39.4-36.7zm48.4-5.9c10.3 11.2 28.6 11.2 38.8 0 10.3-11.2 10.3-30.9 0-42.1-10.2-11.1-28.6-11.1-38.8 0-10.3 11.2-10.3 30.9 0 42.1zm-338.9-325c-26.8 14.4-43.5 24.4-63.5 41.9v-32c0-26.8 35.2-30.3 62-22.4 10.2 3.1 8.6 8.7 1.5 12.5zm57.4 32.5c-39 12.9-85.2 33.9-120.9 61.4v-20.6c19.1-24 46.5-45 79.7-64.9 13.2-7.9 19.6-10.1 28.4-7.6 35.8 10.4 44.3 21.2 12.8 31.7zm179.9 353.2h40.9l56.7 63.7v-63.7h44.5v127.1h-41l-56.6-63.6v63.6h-44.5zm-122.1-314.7c-63.5 19.7-125.3 45-178.7 86v-20.6c36.2-44 95.6-78.2 148.6-104.5 9.3-4.6 15.6-7 25.2-1.9 26.2 13.9 47.2 27.9 4.9 41zm106.6 208.2c2.7 2.8 7.4 4.6 11 6.2 14.6 6.6 33 13.2 40.6 28.6 4.7 9.6 5 21.2 1.2 31.1-3.4 9.2-10.2 16.5-19 20.8-13.8 6.8-31.2 7.5-46.3 5.8-13.8-1.5-27-5.4-36.5-10.9v-38.3c10.2 6.9 21.2 13.4 33.5 15.6 5.9 1 12.2 1.1 17.6-1 5.1-1.9 7.6-6.7 4.5-11.5-1.9-2.8-5.3-4.4-8.3-5.7-13.8-5.7-29-14-38.2-26.1-9.1-12.1-9.5-30.9-1.7-43.8 5.9-9.6 15-15.6 25.2-18.6 21.1-6.3 51.7-1 69 12.4v37.4c-9.3-8.1-19.9-15-32-17.8-5.6-1.3-11.5-1.6-16.6 0.2-7.1 2.6-9.5 10-4 15.6zm344.2 311.7l6.7 6.7c-4.9 5.3-10.3 8.5-19.5 8.5-14 0-24.5-10.8-24.5-24.5v-0.1c0-13.6 10.3-24.7 24.9-24.7 9 0 14.3 3 18.8 7.4l-6.7 7.7c-3.7-3.4-7.4-5.4-12.2-5.4-8 0-13.8 6.7-13.8 14.8v0.2c0 8.2 5.6 15 13.8 15 5.5 0 8.8-2.2 12.5-5.6zm544.4-33.6l20.4 48h-11l-4.3-10.7h-20.2l-4.3 10.7h-10.7l20.4-48zm1.4 28.1l-6.4-15.5-6.3 15.5zm-214.7-72.7h-41l-56.6-63.5v63.5h-44.5v-127h40.9l56.7 63.7v-63.7h44.5zm96 44.9h10.3v47.7h-8.9l-23.1-30.4v30.4h-10.3v-47.7h9.7l22.3 29.3zm-687 16.5v0.2c0 11-8.6 16.7-19.3 16.7h-7.9v14.3h-10.5v-47.7h19.5c11.3 0 18.2 6.8 18.2 16.5zm-10.6 0.2c0-4.7-3.3-7.2-8.5-7.2h-8.1v14.6h8.3c5.2 0 8.3-3.2 8.3-7.2zm630.4 21.6h25.9v9.4h-36.3v-47.7h35.9v9.3h-25.5v9.7h22.5v9.3h-22.5zm-41.2-18.1h20.7v20.7c-4.9 4.2-11.6 7.6-20.3 7.6-14.9 0-25.1-10.5-25.1-24.6v-0.1c0-13.5 10.6-24.7 25-24.7 8.6 0 13.8 2.4 18.7 6.6l-6.6 8c-3.7-3.1-6.9-4.9-12.4-4.9-7.7 0-13.7 6.8-13.7 14.9v0.1c0 8.7 6 15.1 14.4 15.1 3.8 0 7.2-0.9 9.9-2.8v-6.8h-10.6zm191.1 14.2v0.1c0 8.8-7.1 13.1-17.8 13.1h-22.7v-47.7h22.1c9.8 0 15.7 4.8 15.7 12.3v0.2c0 5.4-2.8 8.4-6.2 10.3 5.5 2.1 8.9 5.3 8.9 11.7zm-30.3-15.2h9.7c4.6 0 7.5-1.5 7.5-5v-0.2c0-3.1-2.4-4.9-6.9-4.9h-10.3zm19.9 13.9c0-3.2-2.4-5.2-7.8-5.2h-12.1v10.5h12.5c4.6 0 7.4-1.6 7.4-5.1zm231.1-33.2h10.4v47.7h-8.9l-23.1-30.4v30.4h-10.4v-47.7h9.7l22.3 29.3zm-126.3 0h10.3v47.7h-8.9l-23.1-30.3v30.3h-10.3v-47.7h9.7l22.3 29.4zm170.7 20.3h20.7v20.7c-4.9 4.1-11.6 7.5-20.3 7.5-14.9 0-25.1-10.4-25.1-24.5v-0.1c0-13.6 10.5-24.7 25-24.7 8.6 0 13.7 2.3 18.7 6.5l-6.6 8c-3.7-3.1-6.9-4.8-12.5-4.8-7.6 0-13.6 6.7-13.6 14.8v0.2c0 8.7 6 15.1 14.4 15.1 3.8 0 7.2-1 9.9-2.9v-6.8h-10.6zm-88.4-145.4c4.9 5.7 7.4 13.9 7.4 24.5v54h-26.8v-50.3c0-5.1-0.4-11.3-4.5-14.9-4.3-3.8-11.1-3.3-16.6 0-4.3 2.5-7.5 6.6-10 10.8v54.4h-26.7v-85.3h26.7v10.7c6.4-6.6 14.1-11 23.3-12.2 9.9-1.3 20.7 0.9 27.2 8.3zm0.1 125.2v47.7h-10.5v-47.7zm-37.5 20.2l20.3 27.5h-12.6l-14.8-20.3-5.5 5.7v14.6h-10.5v-47.7h10.5v20.8l19.3-20.8h12.7zm-165.4-73.5c-10.4 7-24.8 8.3-36.6 8.3h-53.4v-127h43.5q17.2 0 28.6 3.9c6.2 2.1 12.2 5.5 16.3 10.7 6.6 8.6 7.6 22 2.1 31.4-3 5-7.6 8.9-13.4 11.5 11.8 3.6 21.5 10.5 25.1 22.7 4 13.9 0.1 30.2-12.2 38.5zm-61.4-68h18.8q8.7 0 12.9-3.3c6-4.6 5.5-17.1-0.1-21.8-2.8-2.3-7.1-3.6-12.8-3.6h-18.8zm38.1 25.7q-5.5-4-17.4-4h-20.7v31.9h20.9c8.2 0 14.1-1.1 17.5-3.4 7.6-5 6.9-19.5-0.3-24.5zm-584.4 133.9h25.8v9.3h-36.3v-47.7h36v9.4h-25.5v9.6h22.4v9.4h-22.4zm-22.4-38.4v47.7h-10.4v-47.7zm89.5 0h10.3v47.7h-8.9l-23.1-30.3v30.3h-10.3v-47.7h9.6l22.4 29.4zm-184.9 38.3h25.9v9.4h-36.3v-47.7h35.9v9.3h-25.5v9.7h22.5v9.3h-22.5zm64.7-7.7l11.7 17.1h-12.3l-10.2-15.3h-8.2v15.3h-10.5v-47.7h21.8c11.2 0 17.9 5.9 17.9 15.7v0.2c0 7.6-4.1 12.5-10.2 14.7zm-0.4-14.3c0-4.5-3.1-6.9-8.2-6.9h-10.4v13.7h10.6c5.1 0 8-2.7 8-6.7zm203 22.1h25.9v9.3h-36.3v-47.7h35.9v9.3h-25.5v9.7h22.5v9.4h-22.5zm261.4-16.8v9.9h-20.9v-9.9zm-20.6-11.9h-14.5v38h-10.5v-38h-14.5v-9.7h39.5zm-60.5 13.6l16.6 24.4h-12.2l-10.7-16.3-10.8 16.3h-11.9l16.6-24.2-15.9-23.5h12.2l10 15.5 10.1-15.5h11.9zm-60.5 15.1h25.8v9.3h-36.3v-47.7h36v9.4h-25.5v9.6h22.4v9.4h-22.4zm-5.6-83.3l-7.4-21.7h-50l-7.8 21.7h-42.8l50.1-127h51.6l48.9 127zm-17.9-51.8l-14.2-41.3-14.6 41.3zm-8.9 96.7h10.4v47.7h-8.9l-23.1-30.3v30.3h-10.4v-47.7h9.7l22.3 29.4z"/></g></svg>